<?xml version="1.0" encoding="UTF-8" standalone="no"?>
<svg
   xmlns:dc="http://purl.org/dc/elements/1.1/"
   xmlns:cc="http://creativecommons.org/ns#"
   xmlns:rdf="http://www.w3.org/1999/02/22-rdf-syntax-ns#"
   xmlns:svg="http://www.w3.org/2000/svg"
   xmlns="http://www.w3.org/2000/svg"
   width="80mm"
   height="94mm"
   viewBox="0 0 80 94"
   version="1.1"
   id="svg1269">
  <defs
     id="defs1263" />
  <metadata
     id="metadata1266">
    <rdf:RDF>
      <cc:Work
         rdf:about="">
        <dc:format>image/svg+xml</dc:format>
        <dc:type
           rdf:resource="http://purl.org/dc/dcmitype/StillImage" />
        <dc:title></dc:title>
      </cc:Work>
    </rdf:RDF>
  </metadata>
  <g
     id="layer1">
    <path
       style="fill:#000000;stroke:#000000;stroke-width:0.264583px;stroke-linecap:butt;stroke-linejoin:miter;stroke-opacity:1"
       d="m 34.742316,44.057655 c 1.5783,-0.83986 3.38051,-1.36794 5.53178,-1.40995 1.99149,0.15168 3.89448,0.56019 5.60889,1.51588 2.49157,-5.17889 7.05286,-7.9924 13.51492,-7.93372 9.09039,0.002 15.18468,6.5489 15.13426,15.15517 -0.19811,9.19273 -7.16217,15.51565 -15.25196,15.46199 -5.47626,-0.0303 -8.55003,-1.43374 -11.33954,-5.15034 l -4.32683,-12.4342 c -0.85494,-1.89499 -2.06255,-2.09092 -3.27733,-2.25227 -1.89458,0.18022 -3.22476,1.17086 -3.70291,3.38492 l -3.912426,11.98461 c -3.14825,2.78818 -7.03624,4.68369 -12.589568,4.56956 -6.756479,-0.0454 -14.0494475,-6.11269 -14.0546955,-15.37433 0.06852,-8.89746 6.5738475,-15.23754 15.3006665,-15.23188 6.706963,-0.0847 10.290145,3.0586 13.364743,7.71456 z"
       id="path1324" />
    <path
       style="fill:#cccccc;stroke:#cccccc;stroke-width:0.264583px;stroke-linecap:butt;stroke-linejoin:miter;stroke-opacity:1"
       d="m 7.1054295,42.868255 c -3.628092,-11.87682 -0.85185,-19.66039 8.9612385,-22.94643 12.903098,-19.05691004 65.762268,-14.07998 57.825968,22.93913 6.49449,-7.31724 6.8195,-14.50409 2.25654,-21.58763 1.55392,-12.11729 -39.10306,-37.204435 -62.241646,-5.87358 -20.0245725,9.4315 -13.83683952,18.45657 -6.8021005,27.46851 z"
       id="path1285" />
    <path
       id="path1330"
       style="fill:#ffffff;stroke:#ffffff;stroke-width:0.264583px;stroke-linecap:butt;stroke-linejoin:miter;stroke-opacity:1"
       d="m 48.248076,52.156165 c -0.107577,-3.3647 1.38272,-6.94376 4.21148,-9.01194 2.05312,-1.52024 4.252556,-2.224517 7.17257,-2.21567 3.23302,0.06852 6.53017,1.85823 8.2955,4.71985 1.26809,1.99686 2.12426,3.971076 1.99874,6.71153 -0.23752,3.18469 -1.74167,6.36548 -4.47402,8.13878 -1.75188,1.19226 -2.936144,2.13022 -6.542414,2.24722 -3.195245,0.0024 -6.170486,-1.59749 -8.266206,-4.39304 -1.37243,-1.7842 -2.33466,-3.593816 -2.39565,-6.19673 z" />
    <path
       style="fill:#cccccc;stroke:#cccccc;stroke-width:0.264583px;stroke-linecap:butt;stroke-linejoin:miter;stroke-opacity:1"
       d="m 49.882356,52.698885 c 0.82389,-2.61425 1.39568,-5.02117 3.36685,-6.82994 2.42336,-2.38533 4.75828,-2.88115 7.1204,-3.77758 -3.34249,-0.0483 -6.02919,0.47771 -8.16257,2.72987 -2.71932,2.91186 -1.93053,5.36409 -2.32468,7.87765 z"
       id="path1287" />
    <path
       id="path1326"
       style="fill:#ffffff;stroke:#ffffff;stroke-width:0.264583px;stroke-linecap:butt;stroke-linejoin:miter;stroke-opacity:1"
       d="m 10.46982,51.510455 c -0.0934,-3.46219 1.993768,-7.09128 5.089977,-8.99696 2.046691,-1.24031 4.517526,-1.83393 6.899895,-1.61581 3.255656,0.47538 6.56605,2.12616 8.149528,5.1361 1.019126,1.86691 1.789507,3.540358 1.598042,6.12034 0.08075,3.407832 -1.681993,6.61262 -4.483929,8.49086 -2.020881,1.3415 -3.918047,1.785823 -6.913356,1.81125 -3.000779,-0.38924 -6.215731,-1.44601 -8.011397,-4.04741 -1.443792,-2.00661 -2.37395,-4.48083 -2.32876,-6.89837 z" />
    <path
       id="path1287-4"
       d="m 12.081955,52.772765 c 0.82389,-2.61425 1.39568,-5.02117 3.36685,-6.82994 2.42336,-2.38533 4.75828,-2.88115 7.12041,-3.77758 -3.3425,-0.0483 -6.0292,0.47771 -8.16258,2.72987 -2.71932,2.91186 -1.93053,5.36409 -2.32468,7.87765 z"
       style="fill:#cccccc;stroke:#cccccc;stroke-width:0.264583px;stroke-linecap:butt;stroke-linejoin:miter;stroke-opacity:1" />
    <path
       style="fill:#000000;stroke:#000000;stroke-width:0.264583px;stroke-linecap:butt;stroke-linejoin:miter;stroke-opacity:1"
       d="m 10.27514,81.843995 c 5.179593,3.70902 10.936644,3.94899 18.085579,-2.743 1.672444,-1.55972 2.190277,-4.02233 3.656146,-5.17091 1.370895,0.42731 2.370181,0.53078 2.777981,0.11881 1.64324,1.49356 3.6104,1.96674 5.71093,2.0198 2.1478,-0.10647 3.7304,-0.93216 5.15993,-1.95264 0.87889,0.53673 1.88194,0.49613 3.03627,-0.24796 10.52347,4.79966 15.72322,0.0152 20.03131,-6.37452 3.00949,21.98421 -20.45619,24.05045 -28.6465,16.706 -9.347171,11.9376 -25.369064,12.48139 -29.811646,-2.35558 z"
       id="path1304" />
    <path
       style="fill:#cccccc;stroke:#cccccc;stroke-width:0.264583px;stroke-linecap:butt;stroke-linejoin:miter;stroke-opacity:1"
       d="m 36.898466,49.427785 c 0.45635,-1.37734 1.53103,-2.24231 3.43804,-2.41757 1.26051,0.10862 2.42003,0.60307 3.27733,2.25227 l 7.02531,20.20836 c 0.45652,2.1769 0.13808,3.85381 -1.93717,4.39725 -1.05498,0.53185 -2.06546,0.59766 -3.03627,0.24796 -3.28068,2.66255 -6.91373,2.56632 -10.87086,-0.0672 -0.992657,0.57911 -1.907562,0.43658 -2.777984,-0.11881 -2.328687,-0.81454 -2.366628,-2.43145 -1.747665,-4.27844 z"
       id="path1320" />
  </g>
</svg>
